<?xml version="1.0" standalone="no"?><!DOCTYPE svg PUBLIC "-//W3C//DTD SVG 1.1//EN" "http://www.w3.org/Graphics/SVG/1.1/DTD/svg11.dtd"><svg t="1783944470368" class="icon" viewBox="0 0 1024 1024" version="1.1" xmlns="http://www.w3.org/2000/svg" p-id="1788" xmlns:xlink="http://www.w3.org/1999/xlink" width="200" height="200"><path d="M787.10272 971.99616c-106.7264 0-280.43776-107.4432-453.35552-280.40704-108.52864-108.49792-194.27328-220.8768-241.44896-316.43136-47.73376-96.6912-53.0432-170.9312-14.93504-209.03936l90.84928-90.84928v-1.00864c1.1008-0.6912 2.57024-1.67424 4.08064-3.12832a93.87008 93.87008 0 0 1 56.54016-19.0208c28.37504 0 54.29248 12.54912 71.1168 34.42688l101.94944 128.22528c30.57664 36.71552 27.99104 87.94112-6.04672 121.9328L339.46624 400.08704l2.77504 4.53632c38.56896 63.08352 78.6688 115.12832 122.59328 159.104 44.06272 44.01664 96.10752 84.13184 159.104 122.6496l4.81792 2.944 59.83744-59.88864c17.55136-17.54624 40.43264-27.20768 64.44032-27.20768 20.97664 0 40.79104 7.28064 57.30816 21.05856l127.98976 101.71904 6.2464 6.29248c17.29536 15.8464 26.97216 37.34528 27.48416 60.76416 0.5376 24.65792-9.472 49.12128-27.46368 67.11296l-88.74496 88.75008c-16.57856 15.94368-39.74656 24.07424-68.75136 24.07424zM227.98336 104.39168c-9.1136 0-18.31936 2.97472-25.25184 8.15616l-0.4096 0.31232-92.33408 92.38016c-7.72608 7.73632-11.60704 19.47648-11.53536 34.90304 0.34304 75.17696 100.6336 251.1872 267.86304 415.5904 155.21792 152.60672 334.42816 267.68384 416.86016 267.68384h0.01536c14.73024 0 26.01472-3.8144 33.536-11.33568 0 0 89.56928-89.55392 90.0096-90.01984 14.23872-14.98112 14.18752-38.43584 0.27136-53.35552a10.24 10.24 0 0 0-6.7072-6.4256l-126.75584-104.01792c-7.64928-5.72928-15.97952-8.6528-24.34048-8.6528-10.19904 0-19.89632 4.28544-28.03712 12.3904l-75.57632 75.57632a27.55072 27.55072 0 0 1-19.3792 7.87968 27.50464 27.50464 0 0 1-11.91424-2.69312 844.46208 844.46208 0 0 1-191.86688-143.19616 844.62592 844.62592 0 0 1-143.35488-192.19968c-4.81792-10.11712-2.72896-22.71744 5.37088-31.01184l71.96672-75.2128c7.6288-5.93408 12.11904-14.82752 12.66688-25.1136 0.50688-9.53856-2.55488-19.49184-8.3968-27.30496l-12.90752-17.25952v1.06496l-88.82688-111.7696c-6.44608-10.40896-17.69984-16.36864-30.96576-16.36864z m649.43616 378.07104c-15.84128 0-25.68192-9.84064-25.68192-25.68704 0-148.90496-121.1648-270.04416-270.10048-270.04416-15.84128 0-25.68192-9.84064-25.68192-25.68704 0-15.87712 9.84064-25.73824 25.68192-25.73824 177.2544 0 321.4592 144.20992 321.4592 321.46432 0.00512 15.85152-9.83552 25.69216-25.6768 25.69216z m-131.46624 0c-15.84128 0-25.68192-9.84064-25.68192-25.68704-0.20992-76.24192-62.39744-138.4192-138.61376-138.62912-15.86176 0-25.7024-9.84064-25.7024-25.68704 0-15.84128 9.84064-25.68704 25.68192-25.68704 104.45824 0.30208 189.70624 85.54496 189.99808 190.02368 0.00512 15.82592-9.83552 25.66656-25.68192 25.66656z" p-id="1789" fill="#3f71ca"></path></svg>